<svg width="300" height="300" xmlns="http://www.w3.org/2000/svg" xmlns:xlink="http://www.w3.org/1999/xlink" xml:space="preserve" overflow="hidden"><defs><clipPath id="clip0"><rect x="0" y="0" width="4695" height="2475"/></clipPath><clipPath id="clip1"><rect x="40" y="412" width="2199" height="1651"/></clipPath><clipPath id="clip2"><rect x="40" y="412" width="2199" height="1651"/></clipPath><clipPath id="clip3"><rect x="40" y="412" width="2199" height="1651"/></clipPath></defs><g clip-path="url(#clip0)"><rect x="0" y="0" width="4400" height="2475" fill="#A8201A"/><g clip-path="url(#clip1)"><g clip-path="url(#clip2)"><g clip-path="url(#clip3)"><path d="M1617.29 824.5C1617.29 1262.35 1262.35 1617.29 824.5 1617.29 386.655 1617.29 31.7115 1262.35 31.7115 824.5 31.7115 386.655 386.655 31.7115 824.5 31.7115 1262.35 31.7115 1617.29 386.655 1617.29 824.5Z" stroke="#F7F3E3" stroke-width="63.4231" fill="none" transform="matrix(1.00018 0 0 1 40.9999 413)"/><path d="M834.014 1617.29 2197.61 1617.29" stroke="#F7F3E3" stroke-width="63.4231" fill="none" transform="matrix(1.00018 0 0 1 40.9999 413)"/><path d="M951.346 834.014C951.346 904.069 894.555 960.86 824.5 960.86 754.445 960.86 697.654 904.069 697.654 834.014 697.654 763.958 754.445 707.167 824.5 707.167 894.555 707.167 951.346 763.958 951.346 834.014Z" stroke="#F7F3E3" stroke-width="63.4231" fill="none" transform="matrix(1.00018 0 0 1 40.9999 413)"/><path d="M875.239 834.014C875.239 862.036 852.522 884.752 824.5 884.752 796.478 884.752 773.762 862.036 773.762 834.014 773.762 805.992 796.478 783.275 824.5 783.275 852.522 783.275 875.239 805.992 875.239 834.014Z" stroke="#F7F3E3" stroke-width="3.17115" fill="#FFF8E7" transform="matrix(1.00018 0 0 1 40.9999 413)"/><path d="M589.835 834.014C589.835 956.61 490.451 1055.99 367.854 1055.99 245.257 1055.99 145.873 956.61 145.873 834.014 145.873 711.417 245.257 612.033 367.854 612.033 490.451 612.033 589.835 711.417 589.835 834.014Z" stroke="#F7F3E3" stroke-width="63.4231" fill="none" transform="matrix(1.00018 0 0 1 40.9999 413)"/><path d="M1046.48 1290.66C1046.48 1413.26 947.097 1512.64 824.5 1512.64 701.904 1512.64 602.519 1413.26 602.519 1290.66 602.519 1168.06 701.904 1068.68 824.5 1068.68 947.097 1068.68 1046.48 1168.06 1046.48 1290.66Z" stroke="#F7F3E3" stroke-width="63.4231" fill="none" transform="matrix(1.00018 0 0 1 40.9999 413)"/><path d="M1503.13 834.014C1503.13 956.61 1403.74 1055.99 1281.15 1055.99 1158.55 1055.99 1059.17 956.61 1059.17 834.014 1059.17 711.417 1158.55 612.033 1281.15 612.033 1403.74 612.033 1503.13 711.417 1503.13 834.014Z" stroke="#F7F3E3" stroke-width="63.4231" fill="none" transform="matrix(1.00018 0 0 1 40.9999 413)"/><path d="M1046.48 377.367C1046.48 499.964 947.097 599.348 824.5 599.348 701.904 599.348 602.519 499.964 602.519 377.367 602.519 254.771 701.904 155.387 824.5 155.387 947.097 155.387 1046.48 254.771 1046.48 377.367Z" stroke="#F7F3E3" stroke-width="63.4231" fill="none" transform="matrix(1.00018 0 0 1 40.9999 413)"/></g></g></g><text fill="#F7F3E3" font-family="Ubuntu Medium,Ubuntu Medium_MSFontService,sans-serif" font-weight="500" font-size="619" transform="matrix(1 0 0 1 1716.54 1479)">CineDeck</text></g></svg>